<mxfile host="app.diagrams.net" modified="2023-04-16T04:34:01.904Z" agent="5.0 (Macintosh; Intel Mac OS X 10_15_5) AppleWebKit/605.1.15 (KHTML, like Gecko) Version/13.1.1 Safari/605.1.15" etag="BL-XNqUUnKqENWLwlEn2" version="14.7.6" type="github">
  <diagram id="0YKwTzjTn9c74l9xXgr4" name="第 1 页">
    <mxGraphModel dx="1284" dy="879" grid="1" gridSize="10" guides="1" tooltips="1" connect="1" arrows="1" fold="1" page="1" pageScale="1" pageWidth="827" pageHeight="1169" math="0" shadow="0">
      <root>
        <mxCell id="0" />
        <mxCell id="1" parent="0" />
      </root>
    </mxGraphModel>
  </diagram>
</mxfile>
